<svg xmlns="http://www.w3.org/2000/svg" xmlns:xlink="http://www.w3.org/1999/xlink" width="500" zoomAndPan="magnify" viewBox="0 0 375 374.999991" height="500" preserveAspectRatio="xMidYMid meet" version="1.0"><defs><clipPath id="4eb7ce5469"><path d="M 50.953125 8.714844 L 335.558594 8.714844 L 335.558594 366.019531 L 50.953125 366.019531 Z M 50.953125 8.714844 " clip-rule="nonzero"/></clipPath><clipPath id="7284b8f051"><path d="M 37.5 0 L 348.75 0 L 348.75 375 L 37.5 375 Z M 37.5 0 " clip-rule="nonzero"/></clipPath></defs><g clip-path="url(#4eb7ce5469)"><path fill="#5271ff" d="M 50.953125 8.714844 L 335.328125 8.714844 L 335.328125 366.164062 L 50.953125 366.164062 Z M 50.953125 8.714844 " fill-opacity="1" fill-rule="nonzero"/></g><path fill="#ffffff" d="M 74.429688 332.910156 C 74.429688 338.0625 78.613281 342.246094 83.765625 342.246094 L 306.085938 342.246094 C 311.242188 342.246094 315.421875 338.0625 315.421875 332.910156 C 315.421875 327.757812 311.242188 323.578125 306.085938 323.578125 L 83.765625 323.578125 C 78.613281 323.578125 74.429688 327.757812 74.429688 332.910156 Z M 74.429688 332.910156 " fill-opacity="1" fill-rule="nonzero"/><g clip-path="url(#7284b8f051)"><path fill="#ffffff" d="M 338.761719 -6.414062 L 83.765625 -6.414062 C 58.359375 -6.414062 37.683594 14.257812 37.683594 39.660156 L 37.683594 332.910156 C 37.683594 332.910156 37.683594 332.917969 37.683594 332.917969 C 37.6875 358.316406 58.359375 378.980469 83.765625 378.980469 L 338.761719 378.980469 C 343.917969 378.980469 348.097656 374.796875 348.097656 369.644531 L 348.097656 2.921875 C 348.097656 -2.234375 343.917969 -6.414062 338.761719 -6.414062 Z M 83.765625 12.257812 L 329.425781 12.257812 L 329.425781 286.832031 L 83.765625 286.832031 C 73.492188 286.832031 64.027344 290.253906 56.355469 295.957031 L 56.355469 39.660156 C 56.355469 24.550781 68.652344 12.257812 83.765625 12.257812 Z M 329.425781 360.3125 L 83.765625 360.3125 C 68.652344 360.3125 56.355469 348.019531 56.355469 332.90625 C 56.355469 317.796875 68.652344 305.503906 83.765625 305.503906 L 329.425781 305.503906 Z M 329.425781 360.3125 " fill-opacity="1" fill-rule="nonzero"/></g><path fill="#ffffff" d="M 134.539062 190.308594 C 136.363281 192.132812 138.75 193.042969 141.140625 193.042969 C 143.527344 193.042969 145.917969 192.132812 147.738281 190.308594 C 151.386719 186.664062 151.386719 180.757812 147.738281 177.109375 L 120.144531 149.523438 L 147.738281 121.9375 C 151.386719 118.292969 151.386719 112.382812 147.738281 108.738281 C 144.097656 105.09375 138.183594 105.09375 134.539062 108.738281 L 100.339844 142.925781 C 98.589844 144.675781 97.605469 147.050781 97.605469 149.527344 C 97.605469 152.007812 98.589844 154.378906 100.339844 156.132812 Z M 134.539062 190.308594 " fill-opacity="1" fill-rule="nonzero"/><path fill="#ffffff" d="M 238.046875 190.308594 C 239.875 192.132812 242.257812 193.042969 244.648438 193.042969 C 247.039062 193.042969 249.425781 192.132812 251.25 190.308594 L 285.441406 156.125 C 289.085938 152.476562 289.085938 146.570312 285.441406 142.925781 L 251.25 108.738281 C 247.605469 105.09375 241.695312 105.09375 238.046875 108.738281 C 234.402344 112.382812 234.402344 118.292969 238.046875 121.9375 L 265.640625 149.523438 L 238.046875 177.109375 C 234.402344 180.757812 234.402344 186.667969 238.046875 190.308594 Z M 238.046875 190.308594 " fill-opacity="1" fill-rule="nonzero"/><path fill="#ffffff" d="M 158.105469 231.371094 C 159.296875 231.875 160.539062 232.117188 161.753906 232.117188 C 165.382812 232.117188 168.839844 229.984375 170.351562 226.429688 L 232.625 79.914062 C 234.640625 75.167969 232.429688 69.6875 227.679688 67.671875 C 222.933594 65.65625 217.449219 67.867188 215.4375 72.617188 L 153.164062 219.128906 C 151.152344 223.875 153.359375 229.355469 158.105469 231.371094 Z M 158.105469 231.371094 " fill-opacity="1" fill-rule="nonzero"/></svg>