<svg xmlns="http://www.w3.org/2000/svg" xmlns:xlink="http://www.w3.org/1999/xlink" width="1200" zoomAndPan="magnify" viewBox="0 0 900 506.249968" height="675" preserveAspectRatio="xMidYMid meet" version="1.0"><defs><g/><clipPath id="55e47526f6"><path d="M 0.664062 0 L 899.332031 0 L 899.332031 505.5 L 0.664062 505.5 Z M 0.664062 0 " clip-rule="nonzero"/></clipPath><clipPath id="901746605c"><path d="M 51.214844 444.375 L 73.683594 444.375 L 73.683594 454.859375 L 51.214844 454.859375 Z M 51.214844 444.375 " clip-rule="nonzero"/></clipPath><clipPath id="ef9c971bdd"><path d="M 58.023438 128.019531 L 204.054688 128.019531 L 204.054688 291.277344 L 58.023438 291.277344 Z M 58.023438 128.019531 " clip-rule="nonzero"/></clipPath></defs><g clip-path="url(#55e47526f6)"><path fill="#ffffff" d="M 0.664062 0 L 899.335938 0 L 899.335938 505.5 L 0.664062 505.5 Z M 0.664062 0 " fill-opacity="1" fill-rule="nonzero"/><path fill="#1b1b1b" d="M 0.664062 0 L 899.335938 0 L 899.335938 505.5 L 0.664062 505.5 Z M 0.664062 0 " fill-opacity="1" fill-rule="nonzero"/></g><g clip-path="url(#901746605c)"><path fill="#ffffff" d="M 51.214844 444.375 L 73.683594 444.375 L 73.683594 454.859375 L 51.214844 454.859375 Z M 51.214844 444.375 " fill-opacity="1" fill-rule="nonzero"/></g><g fill="#ffffff" fill-opacity="1"><g transform="translate(225.491385, 190.234962)"><g><path d="M 14.671875 -30.28125 L 14.671875 0 L 3.546875 0 L 3.546875 -48.796875 L 14.671875 -48.796875 L 34.0625 -18.515625 L 34.1875 -18.515625 L 34.1875 -48.796875 L 45.296875 -48.796875 L 45.296875 0 L 34.1875 0 L 14.78125 -30.28125 Z M 14.671875 -30.28125 "/></g></g></g><g fill="#ffffff" fill-opacity="1"><g transform="translate(274.340157, 190.234962)"><g><path d="M 5.609375 -3.75 C 2.773438 -6.84375 1.359375 -10.632812 1.359375 -15.125 C 1.359375 -19.625 2.773438 -23.429688 5.609375 -26.546875 C 8.453125 -29.660156 12.0625 -31.21875 16.4375 -31.21875 C 20.457031 -31.21875 23.769531 -29.957031 26.375 -27.4375 L 26.375 -30.34375 L 36.84375 -30.34375 L 36.84375 0 L 26.5 0 L 26.5 -3.4375 L 26.375 -3.4375 C 23.769531 -0.550781 20.457031 0.890625 16.4375 0.890625 C 12.0625 0.890625 8.453125 -0.65625 5.609375 -3.75 Z M 14.515625 -20.28125 C 13.160156 -18.945312 12.484375 -17.234375 12.484375 -15.140625 C 12.484375 -13.046875 13.128906 -11.335938 14.421875 -10.015625 C 15.722656 -8.703125 17.441406 -8.046875 19.578125 -8.046875 C 21.628906 -8.046875 23.3125 -8.710938 24.625 -10.046875 C 25.945312 -11.390625 26.609375 -13.085938 26.609375 -15.140625 C 26.609375 -17.234375 25.925781 -18.945312 24.5625 -20.28125 C 23.207031 -21.625 21.546875 -22.296875 19.578125 -22.296875 C 17.566406 -22.296875 15.878906 -21.625 14.515625 -20.28125 Z M 14.515625 -20.28125 "/></g></g></g><g fill="#ffffff" fill-opacity="1"><g transform="translate(314.732065, 190.234962)"><g><path d="M 3.546875 0 L 3.546875 -30.34375 L 14.015625 -30.34375 L 14.015625 -27.140625 L 14.140625 -27.140625 C 16.859375 -29.859375 19.753906 -31.21875 22.828125 -31.21875 C 25.035156 -31.21875 27.101562 -30.765625 29.03125 -29.859375 C 30.96875 -28.953125 32.429688 -27.554688 33.421875 -25.671875 C 36.492188 -29.367188 39.84375 -31.21875 43.46875 -31.21875 C 46.695312 -31.21875 49.472656 -30.3125 51.796875 -28.5 C 54.128906 -26.6875 55.296875 -23.847656 55.296875 -19.984375 L 55.296875 0 L 44.828125 0 L 44.828125 -17.15625 C 44.828125 -18.769531 44.382812 -20.117188 43.5 -21.203125 C 42.613281 -22.285156 41.28125 -22.828125 39.5 -22.828125 C 37.96875 -22.828125 36.796875 -22.363281 35.984375 -21.4375 C 35.179688 -20.507812 34.738281 -19.394531 34.65625 -18.09375 L 34.65625 0 L 24.1875 0 L 24.1875 -17.15625 C 24.1875 -18.769531 23.742188 -20.117188 22.859375 -21.203125 C 21.972656 -22.285156 20.640625 -22.828125 18.859375 -22.828125 C 17.242188 -22.828125 16.03125 -22.320312 15.21875 -21.3125 C 14.414062 -20.3125 14.015625 -19.125 14.015625 -17.75 L 14.015625 0 Z M 3.546875 0 "/></g></g></g><g fill="#ffffff" fill-opacity="1"><g transform="translate(372.983928, 190.234962)"><g><path d="M 5.609375 -3.75 C 2.773438 -6.84375 1.359375 -10.632812 1.359375 -15.125 C 1.359375 -19.625 2.773438 -23.429688 5.609375 -26.546875 C 8.453125 -29.660156 12.0625 -31.21875 16.4375 -31.21875 C 20.457031 -31.21875 23.769531 -29.957031 26.375 -27.4375 L 26.375 -30.34375 L 36.84375 -30.34375 L 36.84375 0 L 26.5 0 L 26.5 -3.4375 L 26.375 -3.4375 C 23.769531 -0.550781 20.457031 0.890625 16.4375 0.890625 C 12.0625 0.890625 8.453125 -0.65625 5.609375 -3.75 Z M 14.515625 -20.28125 C 13.160156 -18.945312 12.484375 -17.234375 12.484375 -15.140625 C 12.484375 -13.046875 13.128906 -11.335938 14.421875 -10.015625 C 15.722656 -8.703125 17.441406 -8.046875 19.578125 -8.046875 C 21.628906 -8.046875 23.3125 -8.710938 24.625 -10.046875 C 25.945312 -11.390625 26.609375 -13.085938 26.609375 -15.140625 C 26.609375 -17.234375 25.925781 -18.945312 24.5625 -20.28125 C 23.207031 -21.625 21.546875 -22.296875 19.578125 -22.296875 C 17.566406 -22.296875 15.878906 -21.625 14.515625 -20.28125 Z M 14.515625 -20.28125 "/></g></g></g><g fill="#ffffff" fill-opacity="1"><g transform="translate(413.375836, 190.234962)"><g><path d="M 16.734375 -31.21875 C 18.472656 -31.21875 20.1875 -31.019531 21.875 -30.625 C 23.570312 -30.238281 24.835938 -29.847656 25.671875 -29.453125 L 26.90625 -28.859375 L 23.484375 -22 C 21.117188 -23.257812 18.867188 -23.890625 16.734375 -23.890625 C 15.554688 -23.890625 14.71875 -23.757812 14.21875 -23.5 C 13.726562 -23.25 13.484375 -22.769531 13.484375 -22.0625 C 13.484375 -21.90625 13.503906 -21.742188 13.546875 -21.578125 C 13.585938 -21.421875 13.664062 -21.273438 13.78125 -21.140625 C 13.894531 -21.003906 14 -20.882812 14.09375 -20.78125 C 14.195312 -20.6875 14.367188 -20.578125 14.609375 -20.453125 C 14.847656 -20.335938 15.035156 -20.25 15.171875 -20.1875 C 15.304688 -20.132812 15.53125 -20.046875 15.84375 -19.921875 C 16.164062 -19.804688 16.40625 -19.71875 16.5625 -19.65625 C 16.71875 -19.601562 16.984375 -19.515625 17.359375 -19.390625 C 17.734375 -19.273438 18.019531 -19.195312 18.21875 -19.15625 C 19.4375 -18.800781 20.5 -18.40625 21.40625 -17.96875 C 22.3125 -17.539062 23.265625 -16.953125 24.265625 -16.203125 C 25.273438 -15.453125 26.054688 -14.503906 26.609375 -13.359375 C 27.160156 -12.222656 27.4375 -10.925781 27.4375 -9.46875 C 27.4375 -2.5625 22.644531 0.890625 13.0625 0.890625 C 10.894531 0.890625 8.835938 0.554688 6.890625 -0.109375 C 4.941406 -0.785156 3.53125 -1.457031 2.65625 -2.125 L 1.359375 -3.1875 L 5.625 -10.34375 C 5.9375 -10.070312 6.347656 -9.75 6.859375 -9.375 C 7.367188 -9 8.296875 -8.484375 9.640625 -7.828125 C 10.984375 -7.179688 12.144531 -6.859375 13.125 -6.859375 C 15.289062 -6.859375 16.375 -7.585938 16.375 -9.046875 C 16.375 -9.710938 16.097656 -10.234375 15.546875 -10.609375 C 14.992188 -10.984375 14.054688 -11.40625 12.734375 -11.875 C 11.421875 -12.351562 10.390625 -12.789062 9.640625 -13.1875 C 7.742188 -14.175781 6.242188 -15.289062 5.140625 -16.53125 C 4.035156 -17.769531 3.484375 -19.414062 3.484375 -21.46875 C 3.484375 -24.539062 4.675781 -26.929688 7.0625 -28.640625 C 9.445312 -30.359375 12.671875 -31.21875 16.734375 -31.21875 Z M 16.734375 -31.21875 "/></g></g></g><g fill="#ffffff" fill-opacity="1"><g transform="translate(442.4722, 190.234962)"><g><path d="M 5.328125 -30.34375 L 5.328125 -41.640625 L 15.796875 -41.640625 L 15.796875 -30.34375 L 22.171875 -30.34375 L 22.171875 -22.359375 L 15.796875 -22.359375 L 15.796875 -12.71875 C 15.796875 -9.914062 16.582031 -8.515625 18.15625 -8.515625 C 18.550781 -8.515625 18.960938 -8.59375 19.390625 -8.75 C 19.828125 -8.90625 20.164062 -9.0625 20.40625 -9.21875 L 20.765625 -9.46875 L 23.359375 -1 C 21.109375 0.257812 18.546875 0.890625 15.671875 0.890625 C 13.703125 0.890625 12.003906 0.546875 10.578125 -0.140625 C 9.160156 -0.835938 8.085938 -1.765625 7.359375 -2.921875 C 6.628906 -4.085938 6.109375 -5.3125 5.796875 -6.59375 C 5.484375 -7.875 5.328125 -9.242188 5.328125 -10.703125 L 5.328125 -22.359375 L 0.953125 -22.359375 L 0.953125 -30.34375 Z M 5.328125 -30.34375 "/></g></g></g><g fill="#ffffff" fill-opacity="1"><g transform="translate(465.832084, 190.234962)"><g><path d="M 34.25 -13.71875 L 12.234375 -13.71875 C 12.234375 -11.59375 12.921875 -10.015625 14.296875 -8.984375 C 15.679688 -7.960938 17.1875 -7.453125 18.8125 -7.453125 C 20.5 -7.453125 21.835938 -7.675781 22.828125 -8.125 C 23.816406 -8.582031 24.941406 -9.484375 26.203125 -10.828125 L 33.765625 -7.03125 C 30.609375 -1.75 25.363281 0.890625 18.03125 0.890625 C 13.457031 0.890625 9.535156 -0.675781 6.265625 -3.8125 C 2.992188 -6.945312 1.359375 -10.722656 1.359375 -15.140625 C 1.359375 -19.554688 2.992188 -23.335938 6.265625 -26.484375 C 9.535156 -29.640625 13.457031 -31.21875 18.03125 -31.21875 C 22.84375 -31.21875 26.753906 -29.828125 29.765625 -27.046875 C 32.785156 -24.273438 34.296875 -20.304688 34.296875 -15.140625 C 34.296875 -14.429688 34.28125 -13.957031 34.25 -13.71875 Z M 12.53125 -19.515625 L 24.0625 -19.515625 C 23.832031 -21.085938 23.210938 -22.296875 22.203125 -23.140625 C 21.203125 -23.992188 19.910156 -24.421875 18.328125 -24.421875 C 16.597656 -24.421875 15.21875 -23.96875 14.1875 -23.0625 C 13.164062 -22.15625 12.613281 -20.972656 12.53125 -19.515625 Z M 12.53125 -19.515625 "/></g></g></g><g fill="#ffffff" fill-opacity="1"><g transform="translate(501.492872, 190.234962)"><g/></g></g><g fill="#ffe604" fill-opacity="1"><g transform="translate(517.640575, 190.234962)"><g><path d="M 24.78125 -48.796875 L 24.78125 -13.78125 C 24.78125 -9.007812 23.46875 -5.367188 20.84375 -2.859375 C 18.226562 -0.359375 14.472656 0.890625 9.578125 0.890625 C 8.273438 0.890625 6.992188 0.726562 5.734375 0.40625 C 4.472656 0.09375 3.40625 -0.285156 2.53125 -0.734375 C 1.664062 -1.191406 0.890625 -1.65625 0.203125 -2.125 C -0.484375 -2.601562 -0.984375 -3 -1.296875 -3.3125 L -1.828125 -3.78125 L 1.71875 -13.0625 C 4.039062 -10.863281 6.148438 -9.765625 8.046875 -9.765625 C 9.742188 -9.765625 11.101562 -10.320312 12.125 -11.4375 C 13.144531 -12.5625 13.65625 -14.289062 13.65625 -16.625 L 13.65625 -48.796875 Z M 24.78125 -48.796875 "/></g></g></g><g fill="#ffe604" fill-opacity="1"><g transform="translate(545.376741, 190.234962)"><g><path d="M 5.609375 -3.75 C 2.773438 -6.84375 1.359375 -10.632812 1.359375 -15.125 C 1.359375 -19.625 2.773438 -23.429688 5.609375 -26.546875 C 8.453125 -29.660156 12.0625 -31.21875 16.4375 -31.21875 C 20.457031 -31.21875 23.769531 -29.957031 26.375 -27.4375 L 26.375 -30.34375 L 36.84375 -30.34375 L 36.84375 0 L 26.5 0 L 26.5 -3.4375 L 26.375 -3.4375 C 23.769531 -0.550781 20.457031 0.890625 16.4375 0.890625 C 12.0625 0.890625 8.453125 -0.65625 5.609375 -3.75 Z M 14.515625 -20.28125 C 13.160156 -18.945312 12.484375 -17.234375 12.484375 -15.140625 C 12.484375 -13.046875 13.128906 -11.335938 14.421875 -10.015625 C 15.722656 -8.703125 17.441406 -8.046875 19.578125 -8.046875 C 21.628906 -8.046875 23.3125 -8.710938 24.625 -10.046875 C 25.945312 -11.390625 26.609375 -13.085938 26.609375 -15.140625 C 26.609375 -17.234375 25.925781 -18.945312 24.5625 -20.28125 C 23.207031 -21.625 21.546875 -22.296875 19.578125 -22.296875 C 17.566406 -22.296875 15.878906 -21.625 14.515625 -20.28125 Z M 14.515625 -20.28125 "/></g></g></g><g fill="#ffe604" fill-opacity="1"><g transform="translate(585.768649, 190.234962)"><g><path d="M 11.234375 -30.34375 L 18.625 -13.84375 L 26.015625 -30.34375 L 38.4375 -30.34375 L 22.171875 0 L 15.078125 0 L -1.1875 -30.34375 Z M 11.234375 -30.34375 "/></g></g></g><g fill="#ffe604" fill-opacity="1"><g transform="translate(623.026189, 190.234962)"><g><path d="M 5.609375 -3.75 C 2.773438 -6.84375 1.359375 -10.632812 1.359375 -15.125 C 1.359375 -19.625 2.773438 -23.429688 5.609375 -26.546875 C 8.453125 -29.660156 12.0625 -31.21875 16.4375 -31.21875 C 20.457031 -31.21875 23.769531 -29.957031 26.375 -27.4375 L 26.375 -30.34375 L 36.84375 -30.34375 L 36.84375 0 L 26.5 0 L 26.5 -3.4375 L 26.375 -3.4375 C 23.769531 -0.550781 20.457031 0.890625 16.4375 0.890625 C 12.0625 0.890625 8.453125 -0.65625 5.609375 -3.75 Z M 14.515625 -20.28125 C 13.160156 -18.945312 12.484375 -17.234375 12.484375 -15.140625 C 12.484375 -13.046875 13.128906 -11.335938 14.421875 -10.015625 C 15.722656 -8.703125 17.441406 -8.046875 19.578125 -8.046875 C 21.628906 -8.046875 23.3125 -8.710938 24.625 -10.046875 C 25.945312 -11.390625 26.609375 -13.085938 26.609375 -15.140625 C 26.609375 -17.234375 25.925781 -18.945312 24.5625 -20.28125 C 23.207031 -21.625 21.546875 -22.296875 19.578125 -22.296875 C 17.566406 -22.296875 15.878906 -21.625 14.515625 -20.28125 Z M 14.515625 -20.28125 "/></g></g></g><g fill="#ffe604" fill-opacity="1"><g transform="translate(663.418096, 190.234962)"><g><path d="M 21.53125 -49.671875 C 24.164062 -49.671875 26.742188 -49.285156 29.265625 -48.515625 C 31.796875 -47.753906 33.671875 -47 34.890625 -46.25 L 36.671875 -45.0625 L 32.171875 -36.1875 C 31.816406 -36.425781 31.320312 -36.734375 30.6875 -37.109375 C 30.0625 -37.484375 28.878906 -37.984375 27.140625 -38.609375 C 25.410156 -39.242188 23.796875 -39.5625 22.296875 -39.5625 C 20.441406 -39.5625 19.007812 -39.164062 18 -38.375 C 17 -37.59375 16.5 -36.53125 16.5 -35.1875 C 16.5 -34.519531 16.734375 -33.898438 17.203125 -33.328125 C 17.679688 -32.753906 18.488281 -32.140625 19.625 -31.484375 C 20.769531 -30.835938 21.773438 -30.316406 22.640625 -29.921875 C 23.515625 -29.523438 24.859375 -28.9375 26.671875 -28.15625 C 29.828125 -26.8125 32.519531 -24.984375 34.75 -22.671875 C 36.976562 -20.367188 38.09375 -17.757812 38.09375 -14.84375 C 38.09375 -12.039062 37.585938 -9.59375 36.578125 -7.5 C 35.578125 -5.414062 34.195312 -3.78125 32.4375 -2.59375 C 30.6875 -1.414062 28.742188 -0.539062 26.609375 0.03125 C 24.484375 0.601562 22.175781 0.890625 19.6875 0.890625 C 17.5625 0.890625 15.472656 0.671875 13.421875 0.234375 C 11.367188 -0.191406 9.648438 -0.726562 8.265625 -1.375 C 6.890625 -2.03125 5.648438 -2.675781 4.546875 -3.3125 C 3.441406 -3.945312 2.632812 -4.476562 2.125 -4.90625 L 1.359375 -5.5625 L 6.921875 -14.90625 C 7.390625 -14.507812 8.035156 -14.003906 8.859375 -13.390625 C 9.691406 -12.785156 11.160156 -11.96875 13.265625 -10.9375 C 15.378906 -9.914062 17.242188 -9.40625 18.859375 -9.40625 C 23.554688 -9.40625 25.90625 -11 25.90625 -14.1875 C 25.90625 -14.863281 25.734375 -15.488281 25.390625 -16.0625 C 25.054688 -16.632812 24.46875 -17.203125 23.625 -17.765625 C 22.78125 -18.335938 22.03125 -18.789062 21.375 -19.125 C 20.726562 -19.46875 19.664062 -19.984375 18.1875 -20.671875 C 16.707031 -21.359375 15.613281 -21.878906 14.90625 -22.234375 C 11.945312 -23.691406 9.660156 -25.515625 8.046875 -27.703125 C 6.429688 -29.890625 5.625 -32.25 5.625 -34.78125 C 5.625 -39.15625 7.238281 -42.726562 10.46875 -45.5 C 13.695312 -48.28125 17.382812 -49.671875 21.53125 -49.671875 Z M 21.53125 -49.671875 "/></g></g></g><g fill="#ffe604" fill-opacity="1"><g transform="translate(703.159479, 190.234962)"><g><path d="M 19.6875 -22.65625 C 17.71875 -22.65625 16.023438 -21.925781 14.609375 -20.46875 C 13.191406 -19.007812 12.484375 -17.253906 12.484375 -15.203125 C 12.484375 -13.109375 13.191406 -11.332031 14.609375 -9.875 C 16.023438 -8.414062 17.71875 -7.6875 19.6875 -7.6875 C 20.632812 -7.6875 21.53125 -7.800781 22.375 -8.03125 C 23.226562 -8.269531 23.851562 -8.507812 24.25 -8.75 L 24.78125 -9.109375 L 28.328125 -1.828125 C 28.054688 -1.628906 27.671875 -1.382812 27.171875 -1.09375 C 26.679688 -0.800781 25.554688 -0.398438 23.796875 0.109375 C 22.046875 0.628906 20.164062 0.890625 18.15625 0.890625 C 13.695312 0.890625 9.78125 -0.675781 6.40625 -3.8125 C 3.039062 -6.945312 1.359375 -10.703125 1.359375 -15.078125 C 1.359375 -19.492188 3.039062 -23.285156 6.40625 -26.453125 C 9.78125 -29.628906 13.695312 -31.21875 18.15625 -31.21875 C 20.164062 -31.21875 22.019531 -30.984375 23.71875 -30.515625 C 25.414062 -30.046875 26.617188 -29.570312 27.328125 -29.09375 L 28.328125 -28.390625 L 24.78125 -21.234375 C 23.476562 -22.179688 21.78125 -22.65625 19.6875 -22.65625 Z M 19.6875 -22.65625 "/></g></g></g><g fill="#ffe604" fill-opacity="1"><g transform="translate(732.196707, 190.234962)"><g><path d="M 3.546875 0 L 3.546875 -30.34375 L 14.015625 -30.34375 L 14.015625 -25.96875 L 14.140625 -25.96875 C 14.210938 -26.125 14.335938 -26.316406 14.515625 -26.546875 C 14.691406 -26.785156 15.078125 -27.203125 15.671875 -27.796875 C 16.265625 -28.390625 16.894531 -28.921875 17.5625 -29.390625 C 18.226562 -29.867188 19.09375 -30.289062 20.15625 -30.65625 C 21.226562 -31.03125 22.316406 -31.21875 23.421875 -31.21875 C 24.566406 -31.21875 25.691406 -31.0625 26.796875 -30.75 C 27.898438 -30.4375 28.707031 -30.125 29.21875 -29.8125 L 30.046875 -29.328125 L 25.671875 -20.46875 C 24.367188 -21.570312 22.550781 -22.125 20.21875 -22.125 C 18.957031 -22.125 17.875 -21.847656 16.96875 -21.296875 C 16.0625 -20.742188 15.421875 -20.070312 15.046875 -19.28125 C 14.671875 -18.488281 14.40625 -17.816406 14.25 -17.265625 C 14.09375 -16.710938 14.015625 -16.28125 14.015625 -15.96875 L 14.015625 0 Z M 3.546875 0 "/></g></g></g><g fill="#ffe604" fill-opacity="1"><g transform="translate(761.647908, 190.234962)"><g><path d="M 4.546875 -47.25 C 5.773438 -48.476562 7.234375 -49.09375 8.921875 -49.09375 C 10.617188 -49.09375 12.078125 -48.476562 13.296875 -47.25 C 14.523438 -46.03125 15.140625 -44.570312 15.140625 -42.875 C 15.140625 -41.175781 14.523438 -39.71875 13.296875 -38.5 C 12.078125 -37.28125 10.617188 -36.671875 8.921875 -36.671875 C 7.234375 -36.671875 5.773438 -37.28125 4.546875 -38.5 C 3.328125 -39.71875 2.71875 -41.175781 2.71875 -42.875 C 2.71875 -44.570312 3.328125 -46.03125 4.546875 -47.25 Z M 3.546875 -30.34375 L 3.546875 0 L 14.015625 0 L 14.015625 -30.34375 Z M 3.546875 -30.34375 "/></g></g></g><g fill="#ffe604" fill-opacity="1"><g transform="translate(779.507876, 190.234962)"><g><path d="M 34.765625 -26.578125 C 37.609375 -23.484375 39.03125 -19.6875 39.03125 -15.1875 C 39.03125 -10.695312 37.609375 -6.894531 34.765625 -3.78125 C 31.929688 -0.664062 28.328125 0.890625 23.953125 0.890625 C 19.929688 0.890625 16.617188 -0.367188 14.015625 -2.890625 L 14.015625 15.375 L 3.546875 15.375 L 3.546875 -30.34375 L 13.890625 -30.34375 L 13.890625 -26.90625 L 14.015625 -26.90625 C 16.617188 -29.78125 19.929688 -31.21875 23.953125 -31.21875 C 28.328125 -31.21875 31.929688 -29.671875 34.765625 -26.578125 Z M 25.875 -10.046875 C 27.238281 -11.390625 27.921875 -13.101562 27.921875 -15.1875 C 27.921875 -17.28125 27.269531 -18.988281 25.96875 -20.3125 C 24.664062 -21.632812 22.945312 -22.296875 20.8125 -22.296875 C 18.769531 -22.296875 17.085938 -21.625 15.765625 -20.28125 C 14.441406 -18.945312 13.78125 -17.253906 13.78125 -15.203125 C 13.78125 -13.109375 14.457031 -11.390625 15.8125 -10.046875 C 17.175781 -8.710938 18.84375 -8.046875 20.8125 -8.046875 C 22.820312 -8.046875 24.507812 -8.710938 25.875 -10.046875 Z M 25.875 -10.046875 "/></g></g></g><g fill="#ffe604" fill-opacity="1"><g transform="translate(819.899783, 190.234962)"><g><path d="M 5.328125 -30.34375 L 5.328125 -41.640625 L 15.796875 -41.640625 L 15.796875 -30.34375 L 22.171875 -30.34375 L 22.171875 -22.359375 L 15.796875 -22.359375 L 15.796875 -12.71875 C 15.796875 -9.914062 16.582031 -8.515625 18.15625 -8.515625 C 18.550781 -8.515625 18.960938 -8.59375 19.390625 -8.75 C 19.828125 -8.90625 20.164062 -9.0625 20.40625 -9.21875 L 20.765625 -9.46875 L 23.359375 -1 C 21.109375 0.257812 18.546875 0.890625 15.671875 0.890625 C 13.703125 0.890625 12.003906 0.546875 10.578125 -0.140625 C 9.160156 -0.835938 8.085938 -1.765625 7.359375 -2.921875 C 6.628906 -4.085938 6.109375 -5.3125 5.796875 -6.59375 C 5.484375 -7.875 5.328125 -9.242188 5.328125 -10.703125 L 5.328125 -22.359375 L 0.953125 -22.359375 L 0.953125 -30.34375 Z M 5.328125 -30.34375 "/></g></g></g><g fill="#ffffff" fill-opacity="1"><g transform="translate(225.491385, 265.124007)"><g><path d="M 16.8125 -22.4375 L 16.8125 0 L 4.0625 0 L 4.0625 -55.921875 L 16.8125 -55.921875 L 16.8125 -33.625 L 34.84375 -33.625 L 34.84375 -55.921875 L 47.578125 -55.921875 L 47.578125 0 L 34.84375 0 L 34.84375 -22.4375 Z M 16.8125 -22.4375 "/></g></g></g><g fill="#ffffff" fill-opacity="1"><g transform="translate(277.135687, 265.124007)"><g><path d="M 6.4375 -4.296875 C 3.1875 -7.847656 1.5625 -12.195312 1.5625 -17.34375 C 1.5625 -22.5 3.1875 -26.859375 6.4375 -30.421875 C 9.6875 -33.992188 13.820312 -35.78125 18.84375 -35.78125 C 23.445312 -35.78125 27.242188 -34.335938 30.234375 -31.453125 L 30.234375 -34.765625 L 42.234375 -34.765625 L 42.234375 0 L 30.359375 0 L 30.359375 -3.9375 L 30.234375 -3.9375 C 27.242188 -0.632812 23.445312 1.015625 18.84375 1.015625 C 13.820312 1.015625 9.6875 -0.753906 6.4375 -4.296875 Z M 16.640625 -23.234375 C 15.078125 -21.703125 14.296875 -19.738281 14.296875 -17.34375 C 14.296875 -14.957031 15.039062 -13.003906 16.53125 -11.484375 C 18.03125 -9.972656 20 -9.21875 22.4375 -9.21875 C 24.78125 -9.21875 26.707031 -9.984375 28.21875 -11.515625 C 29.738281 -13.054688 30.5 -15.003906 30.5 -17.359375 C 30.5 -19.742188 29.71875 -21.703125 28.15625 -23.234375 C 26.601562 -24.773438 24.695312 -25.546875 22.4375 -25.546875 C 20.132812 -25.546875 18.203125 -24.773438 16.640625 -23.234375 Z M 16.640625 -23.234375 "/></g></g></g><g fill="#ffffff" fill-opacity="1"><g transform="translate(323.425792, 265.124007)"><g><path d="M 4.0625 0 L 4.0625 -34.765625 L 16.0625 -34.765625 L 16.0625 -31.109375 L 16.203125 -31.109375 C 19.316406 -34.222656 22.632812 -35.78125 26.15625 -35.78125 C 27.875 -35.78125 29.582031 -35.554688 31.28125 -35.109375 C 32.976562 -34.660156 34.601562 -33.960938 36.15625 -33.015625 C 37.71875 -32.066406 38.984375 -30.71875 39.953125 -28.96875 C 40.929688 -27.226562 41.421875 -25.207031 41.421875 -22.90625 L 41.421875 0 L 29.421875 0 L 29.421875 -19.65625 C 29.421875 -21.46875 28.84375 -23.050781 27.6875 -24.40625 C 26.53125 -25.757812 25.03125 -26.4375 23.1875 -26.4375 C 21.375 -26.4375 19.734375 -25.734375 18.265625 -24.328125 C 16.796875 -22.929688 16.0625 -21.375 16.0625 -19.65625 L 16.0625 0 Z M 4.0625 0 "/></g></g></g><g fill="#ffffff" fill-opacity="1"><g transform="translate(368.224847, 265.124007)"><g><path d="M 6.4375 -4.296875 C 3.1875 -7.847656 1.5625 -12.195312 1.5625 -17.34375 C 1.5625 -22.5 3.1875 -26.859375 6.4375 -30.421875 C 9.6875 -33.992188 13.820312 -35.78125 18.84375 -35.78125 C 23.445312 -35.78125 27.242188 -34.335938 30.234375 -31.453125 L 30.234375 -58.296875 L 42.234375 -58.296875 L 42.234375 0 L 30.359375 0 L 30.359375 -3.9375 L 30.234375 -3.9375 C 27.242188 -0.632812 23.445312 1.015625 18.84375 1.015625 C 13.820312 1.015625 9.6875 -0.753906 6.4375 -4.296875 Z M 16.640625 -23.234375 C 15.078125 -21.703125 14.296875 -19.738281 14.296875 -17.34375 C 14.296875 -14.957031 15.039062 -13.003906 16.53125 -11.484375 C 18.03125 -9.972656 20 -9.21875 22.4375 -9.21875 C 24.78125 -9.21875 26.707031 -9.984375 28.21875 -11.515625 C 29.738281 -13.054688 30.5 -15.003906 30.5 -17.359375 C 30.5 -19.742188 29.71875 -21.703125 28.15625 -23.234375 C 26.601562 -24.773438 24.695312 -25.546875 22.4375 -25.546875 C 20.132812 -25.546875 18.203125 -24.773438 16.640625 -23.234375 Z M 16.640625 -23.234375 "/></g></g></g><g fill="#ffffff" fill-opacity="1"><g transform="translate(414.514952, 265.124007)"><g><path d="M 39.84375 -30.421875 C 43.101562 -26.859375 44.734375 -22.5 44.734375 -17.34375 C 44.734375 -12.195312 43.101562 -7.847656 39.84375 -4.296875 C 36.59375 -0.753906 32.460938 1.015625 27.453125 1.015625 C 22.835938 1.015625 19.039062 -0.632812 16.0625 -3.9375 L 15.921875 -3.9375 L 15.921875 0 L 4.0625 0 L 4.0625 -58.296875 L 16.0625 -58.296875 L 16.0625 -31.453125 C 19.039062 -34.335938 22.835938 -35.78125 27.453125 -35.78125 C 32.460938 -35.78125 36.59375 -33.992188 39.84375 -30.421875 Z M 29.75 -11.484375 C 31.25 -13.003906 32 -14.957031 32 -17.34375 C 32 -19.738281 31.21875 -21.703125 29.65625 -23.234375 C 28.09375 -24.773438 26.160156 -25.546875 23.859375 -25.546875 C 21.597656 -25.546875 19.6875 -24.773438 18.125 -23.234375 C 16.570312 -21.703125 15.796875 -19.742188 15.796875 -17.359375 C 15.796875 -15.003906 16.550781 -13.054688 18.0625 -11.515625 C 19.570312 -9.984375 21.503906 -9.21875 23.859375 -9.21875 C 26.296875 -9.21875 28.257812 -9.972656 29.75 -11.484375 Z M 29.75 -11.484375 "/></g></g></g><g fill="#ffffff" fill-opacity="1"><g transform="translate(460.805069, 265.124007)"><g><path d="M 7.359375 -4.125 C 3.492188 -7.5625 1.5625 -11.96875 1.5625 -17.34375 C 1.5625 -22.726562 3.570312 -27.144531 7.59375 -30.59375 C 11.613281 -34.050781 16.582031 -35.78125 22.5 -35.78125 C 28.332031 -35.78125 33.25 -34.039062 37.25 -30.5625 C 41.25 -27.082031 43.25 -22.675781 43.25 -17.34375 C 43.25 -12.019531 41.289062 -7.628906 37.375 -4.171875 C 33.46875 -0.710938 28.507812 1.015625 22.5 1.015625 C 16.269531 1.015625 11.222656 -0.695312 7.359375 -4.125 Z M 16.640625 -23.234375 C 15.078125 -21.703125 14.296875 -19.738281 14.296875 -17.34375 C 14.296875 -14.957031 15.039062 -13.003906 16.53125 -11.484375 C 18.03125 -9.972656 20 -9.21875 22.4375 -9.21875 C 24.78125 -9.21875 26.707031 -9.984375 28.21875 -11.515625 C 29.738281 -13.054688 30.5 -15.003906 30.5 -17.359375 C 30.5 -19.742188 29.71875 -21.703125 28.15625 -23.234375 C 26.601562 -24.773438 24.695312 -25.546875 22.4375 -25.546875 C 20.132812 -25.546875 18.203125 -24.773438 16.640625 -23.234375 Z M 16.640625 -23.234375 "/></g></g></g><g fill="#ffffff" fill-opacity="1"><g transform="translate(505.604114, 265.124007)"><g><path d="M 7.359375 -4.125 C 3.492188 -7.5625 1.5625 -11.96875 1.5625 -17.34375 C 1.5625 -22.726562 3.570312 -27.144531 7.59375 -30.59375 C 11.613281 -34.050781 16.582031 -35.78125 22.5 -35.78125 C 28.332031 -35.78125 33.25 -34.039062 37.25 -30.5625 C 41.25 -27.082031 43.25 -22.675781 43.25 -17.34375 C 43.25 -12.019531 41.289062 -7.628906 37.375 -4.171875 C 33.46875 -0.710938 28.507812 1.015625 22.5 1.015625 C 16.269531 1.015625 11.222656 -0.695312 7.359375 -4.125 Z M 16.640625 -23.234375 C 15.078125 -21.703125 14.296875 -19.738281 14.296875 -17.34375 C 14.296875 -14.957031 15.039062 -13.003906 16.53125 -11.484375 C 18.03125 -9.972656 20 -9.21875 22.4375 -9.21875 C 24.78125 -9.21875 26.707031 -9.984375 28.21875 -11.515625 C 29.738281 -13.054688 30.5 -15.003906 30.5 -17.359375 C 30.5 -19.742188 29.71875 -21.703125 28.15625 -23.234375 C 26.601562 -24.773438 24.695312 -25.546875 22.4375 -25.546875 C 20.132812 -25.546875 18.203125 -24.773438 16.640625 -23.234375 Z M 16.640625 -23.234375 "/></g></g></g><g fill="#ffffff" fill-opacity="1"><g transform="translate(550.403158, 265.124007)"><g><path d="M 43.78125 -34.765625 L 27.25 -18.171875 L 45.40625 0 L 29.953125 0 L 16.0625 -13.890625 L 16.0625 0 L 4.0625 0 L 4.0625 -58.296875 L 16.0625 -58.296875 L 16.0625 -22.640625 L 28.203125 -34.765625 Z M 43.78125 -34.765625 "/></g></g></g><g clip-path="url(#ef9c971bdd)"><path fill="#ffffff" d="M 203.253906 129.378906 C 202.578125 128.644531 201.628906 128.226562 200.632812 128.226562 L 61.804688 128.226562 C 60.804688 128.226562 59.855469 128.644531 59.179688 129.378906 C 58.507812 130.109375 58.175781 131.09375 58.265625 132.082031 L 70.773438 271.65625 C 70.902344 273.113281 71.921875 274.34375 73.335938 274.746094 L 130.222656 290.933594 C 130.539062 291.023438 130.871094 291.070312 131.195312 291.070312 C 131.523438 291.070312 131.851562 291.023438 132.167969 290.933594 L 189.105469 274.746094 C 190.519531 274.34375 191.539062 273.113281 191.671875 271.65625 L 204.171875 132.082031 C 204.257812 131.09375 203.925781 130.109375 203.253906 129.378906 Z M 85.027344 223.824219 L 109.898438 230.699219 L 109.898438 160.085938 L 124.109375 160.085938 L 124.109375 252.128906 L 85.027344 241.328125 Z M 177.601562 199.027344 L 173.855469 242.394531 L 138.324219 252.128906 L 138.324219 235.839844 L 162.308594 229.273438 L 163.195312 216 L 138.324219 220.269531 L 138.324219 160.085938 L 180.960938 160.085938 L 179.734375 174.25 L 152.535156 174.25 L 152.535156 202.570312 Z M 177.601562 199.027344 " fill-opacity="1" fill-rule="nonzero"/></g><g fill="#ff00ff" fill-opacity="1"><g transform="translate(74.511573, 372.269352)"><g><path d="M 24.984375 -17.636719 L 7.347656 -17.636719 L 7.347656 -29.394531 L 1.46875 -29.394531 L 1.46875 -17.636719 C 1.46875 -14.402344 4.113281 -11.757812 7.347656 -11.757812 L 24.984375 -11.757812 L 24.984375 -5.878906 L 1.46875 -5.878906 L 1.46875 0 L 24.984375 0 C 28.21875 0 30.863281 -2.644531 30.863281 -5.878906 L 30.863281 -29.394531 L 24.984375 -29.394531 Z M 24.984375 -17.636719 "/></g></g></g><g fill="#ff00ff" fill-opacity="1"><g transform="translate(112.647127, 372.269352)"><g><path d="M 24.984375 0 C 28.253906 0 30.863281 -2.683594 30.863281 -5.878906 L 30.863281 -23.515625 C 30.863281 -26.746094 28.21875 -29.394531 24.984375 -29.394531 L 7.347656 -29.394531 C 4.113281 -29.394531 1.46875 -26.746094 1.46875 -23.515625 L 1.46875 -5.878906 C 1.46875 -2.644531 4.113281 0 7.347656 0 Z M 7.347656 -23.515625 L 24.984375 -23.515625 L 24.984375 -5.878906 L 7.347656 -5.878906 Z M 7.347656 -23.515625 "/></g></g></g><g fill="#ff00ff" fill-opacity="1"><g transform="translate(150.782681, 372.269352)"><g><path d="M 24.984375 0 C 28.21875 0 30.863281 -2.644531 30.863281 -5.878906 L 30.863281 -29.394531 L 24.984375 -29.394531 L 24.984375 -5.878906 L 7.347656 -5.878906 L 7.347656 -29.394531 L 1.46875 -29.394531 L 1.46875 -5.878906 C 1.46875 -2.644531 4.113281 0 7.347656 0 Z M 24.984375 0 "/></g></g></g><g fill="#ff00ff" fill-opacity="1"><g transform="translate(188.918235, 372.269352)"><g><path d="M 30.863281 -23.515625 C 30.863281 -26.746094 28.21875 -29.394531 24.984375 -29.394531 L 1.46875 -29.394531 L 1.46875 0 L 7.347656 0 L 7.347656 -11.757812 L 10.800781 -11.757812 L 21.675781 -0.882812 C 22.265625 -0.292969 23 0 23.808594 0 L 30.863281 0 L 30.863281 -5.878906 L 24.984375 -5.878906 L 19.105469 -11.757812 L 24.984375 -11.757812 C 28.21875 -11.757812 30.863281 -14.402344 30.863281 -17.636719 Z M 24.984375 -23.515625 L 24.984375 -17.636719 L 7.347656 -17.636719 L 7.347656 -23.515625 Z M 24.984375 -23.515625 "/></g></g></g><g fill="#ff00ff" fill-opacity="1"><g transform="translate(227.053789, 372.269352)"><g/></g></g><g fill="#ff00ff" fill-opacity="1"><g transform="translate(249.024801, 372.269352)"><g><path d="M 30.863281 -29.394531 L 7.347656 -29.394531 C 4.113281 -29.394531 1.46875 -26.746094 1.46875 -23.515625 L 1.46875 -5.878906 C 1.46875 -2.644531 4.113281 0 7.347656 0 L 24.984375 0 C 28.253906 0 30.863281 -2.683594 30.863281 -5.878906 L 30.863281 -17.636719 L 13.226562 -17.636719 L 13.226562 -11.757812 L 24.984375 -11.757812 L 24.984375 -5.878906 L 7.347656 -5.878906 L 7.347656 -23.515625 L 30.863281 -23.515625 Z M 30.863281 -29.394531 "/></g></g></g><g fill="#ff00ff" fill-opacity="1"><g transform="translate(287.160363, 372.269352)"><g><path d="M 24.984375 0 C 28.253906 0 30.863281 -2.683594 30.863281 -5.878906 L 30.863281 -23.515625 C 30.863281 -26.746094 28.21875 -29.394531 24.984375 -29.394531 L 7.347656 -29.394531 C 4.113281 -29.394531 1.46875 -26.746094 1.46875 -23.515625 L 1.46875 -5.878906 C 1.46875 -2.644531 4.113281 0 7.347656 0 Z M 7.347656 -23.515625 L 24.984375 -23.515625 L 24.984375 -5.878906 L 7.347656 -5.878906 Z M 7.347656 -23.515625 "/></g></g></g><g fill="#ff00ff" fill-opacity="1"><g transform="translate(325.295924, 372.269352)"><g><path d="M 30.863281 -29.394531 L 1.46875 -29.394531 L 1.46875 -23.515625 L 13.226562 -23.515625 L 13.226562 0 L 19.105469 0 L 19.105469 -23.515625 L 30.863281 -23.515625 Z M 30.863281 -29.394531 "/></g></g></g><g fill="#ff00ff" fill-opacity="1"><g transform="translate(363.431486, 372.269352)"><g><path d="M 24.984375 0 C 28.253906 0 30.863281 -2.683594 30.863281 -5.878906 L 30.863281 -23.515625 C 30.863281 -26.746094 28.21875 -29.394531 24.984375 -29.394531 L 7.347656 -29.394531 C 4.113281 -29.394531 1.46875 -26.746094 1.46875 -23.515625 L 1.46875 -5.878906 C 1.46875 -2.644531 4.113281 0 7.347656 0 Z M 7.347656 -23.515625 L 24.984375 -23.515625 L 24.984375 -5.878906 L 7.347656 -5.878906 Z M 7.347656 -23.515625 "/></g></g></g><g fill="#ff00ff" fill-opacity="1"><g transform="translate(401.567048, 372.269352)"><g/></g></g><g fill="#ff00ff" fill-opacity="1"><g transform="translate(423.53806, 372.269352)"><g><path d="M 24.984375 -29.394531 L 1.46875 -29.394531 L 1.46875 0 L 7.347656 0 L 7.347656 -11.757812 L 24.984375 -11.757812 C 28.21875 -11.757812 30.863281 -14.402344 30.863281 -17.636719 L 30.863281 -23.515625 C 30.863281 -26.746094 28.21875 -29.394531 24.984375 -29.394531 Z M 7.347656 -17.636719 L 7.347656 -23.515625 L 24.984375 -23.515625 L 24.984375 -17.636719 Z M 7.347656 -17.636719 "/></g></g></g><g fill="#ff00ff" fill-opacity="1"><g transform="translate(461.673622, 372.269352)"><g><path d="M 30.863281 0 L 30.863281 -5.878906 L 7.347656 -5.878906 L 7.347656 -29.394531 L 1.46875 -29.394531 L 1.46875 -5.878906 C 1.46875 -2.644531 4.113281 0 7.347656 0 Z M 30.863281 0 "/></g></g></g><g fill="#ff00ff" fill-opacity="1"><g transform="translate(499.809183, 372.269352)"><g><path d="M 7.347656 -29.394531 C 4.113281 -29.394531 1.46875 -26.746094 1.46875 -23.515625 L 1.46875 0 L 7.347656 0 L 7.347656 -11.757812 L 24.984375 -11.757812 L 24.984375 0 L 30.863281 0 L 30.863281 -23.515625 C 30.863281 -26.746094 28.21875 -29.394531 24.984375 -29.394531 Z M 7.347656 -23.515625 L 24.984375 -23.515625 L 24.984375 -17.636719 L 7.347656 -17.636719 Z M 7.347656 -23.515625 "/></g></g></g><g fill="#ff00ff" fill-opacity="1"><g transform="translate(537.944745, 372.269352)"><g><path d="M 30.863281 0 L 30.863281 -5.878906 L 7.347656 -5.878906 L 7.347656 -23.515625 L 30.863281 -23.515625 L 30.863281 -29.394531 L 7.347656 -29.394531 C 4.113281 -29.394531 1.46875 -26.746094 1.46875 -23.515625 L 1.46875 -5.878906 C 1.46875 -2.644531 4.113281 0 7.347656 0 Z M 30.863281 0 "/></g></g></g><g fill="#ff00ff" fill-opacity="1"><g transform="translate(576.080277, 372.269352)"><g><path d="M 30.863281 -29.394531 L 7.347656 -29.394531 C 4.113281 -29.394531 1.46875 -26.746094 1.46875 -23.515625 L 1.46875 -5.878906 C 1.46875 -2.644531 4.113281 0 7.347656 0 L 30.863281 0 L 30.863281 -5.878906 L 7.347656 -5.878906 L 7.347656 -11.757812 L 30.863281 -11.757812 L 30.863281 -17.636719 L 7.347656 -17.636719 L 7.347656 -23.515625 L 30.863281 -23.515625 Z M 30.863281 -29.394531 "/></g></g></g><g fill="#ff00ff" fill-opacity="1"><g transform="translate(614.21581, 372.269352)"><g/></g></g><g fill="#ff00ff" fill-opacity="1"><g transform="translate(636.186821, 372.269352)"><g><path d="M 30.863281 -29.394531 L 7.347656 -29.394531 C 4.113281 -29.394531 1.46875 -26.746094 1.46875 -23.515625 L 1.46875 0 L 7.347656 0 L 7.347656 -11.757812 L 30.863281 -11.757812 L 30.863281 -17.636719 L 7.347656 -17.636719 L 7.347656 -23.515625 L 30.863281 -23.515625 Z M 30.863281 -29.394531 "/></g></g></g><g fill="#ff00ff" fill-opacity="1"><g transform="translate(674.322354, 372.269352)"><g><path d="M 24.984375 0 C 28.253906 0 30.863281 -2.683594 30.863281 -5.878906 L 30.863281 -23.515625 C 30.863281 -26.746094 28.21875 -29.394531 24.984375 -29.394531 L 7.347656 -29.394531 C 4.113281 -29.394531 1.46875 -26.746094 1.46875 -23.515625 L 1.46875 -5.878906 C 1.46875 -2.644531 4.113281 0 7.347656 0 Z M 7.347656 -23.515625 L 24.984375 -23.515625 L 24.984375 -5.878906 L 7.347656 -5.878906 Z M 7.347656 -23.515625 "/></g></g></g><g fill="#ff00ff" fill-opacity="1"><g transform="translate(712.457886, 372.269352)"><g><path d="M 30.863281 -23.515625 C 30.863281 -26.746094 28.21875 -29.394531 24.984375 -29.394531 L 1.46875 -29.394531 L 1.46875 0 L 7.347656 0 L 7.347656 -11.757812 L 10.800781 -11.757812 L 21.675781 -0.882812 C 22.265625 -0.292969 23 0 23.808594 0 L 30.863281 0 L 30.863281 -5.878906 L 24.984375 -5.878906 L 19.105469 -11.757812 L 24.984375 -11.757812 C 28.21875 -11.757812 30.863281 -14.402344 30.863281 -17.636719 Z M 24.984375 -23.515625 L 24.984375 -17.636719 L 7.347656 -17.636719 L 7.347656 -23.515625 Z M 24.984375 -23.515625 "/></g></g></g><g fill="#ff00ff" fill-opacity="1"><g transform="translate(750.593418, 372.269352)"><g/></g></g><g fill="#ff00ff" fill-opacity="1"><g transform="translate(772.56443, 372.269352)"><g><path d="M 24.984375 0 C 28.253906 0 30.863281 -2.683594 30.863281 -5.878906 L 30.863281 -29.394531 L 13.226562 -29.394531 L 13.226562 -23.515625 L 24.984375 -23.515625 L 24.984375 -5.878906 L 7.347656 -5.878906 L 7.347656 -11.757812 L 1.46875 -11.757812 L 1.46875 -5.878906 C 1.46875 -2.644531 4.113281 0 7.347656 0 Z M 24.984375 0 "/></g></g></g><g fill="#ff00ff" fill-opacity="1"><g transform="translate(810.699962, 372.269352)"><g><path d="M 30.863281 -29.394531 L 7.347656 -29.394531 C 4.113281 -29.394531 1.46875 -26.746094 1.46875 -23.515625 L 1.46875 -17.636719 C 1.46875 -14.402344 4.113281 -11.757812 7.347656 -11.757812 L 24.984375 -11.757812 L 24.984375 -5.878906 L 1.46875 -5.878906 L 1.46875 0 L 24.984375 0 C 28.21875 0 30.863281 -2.644531 30.863281 -5.878906 L 30.863281 -11.757812 C 30.863281 -14.992188 28.21875 -17.636719 24.984375 -17.636719 L 7.347656 -17.636719 L 7.347656 -23.515625 L 30.863281 -23.515625 Z M 30.863281 -29.394531 "/></g></g></g><g fill="#00ffff" fill-opacity="1"><g transform="translate(78.987567, 373.302704)"><g><path d="M 24.984375 -17.636719 L 7.347656 -17.636719 L 7.347656 -29.394531 L 1.46875 -29.394531 L 1.46875 -17.636719 C 1.46875 -14.402344 4.113281 -11.757812 7.347656 -11.757812 L 24.984375 -11.757812 L 24.984375 -5.878906 L 1.46875 -5.878906 L 1.46875 0 L 24.984375 0 C 28.21875 0 30.863281 -2.644531 30.863281 -5.878906 L 30.863281 -29.394531 L 24.984375 -29.394531 Z M 24.984375 -17.636719 "/></g></g></g><g fill="#00ffff" fill-opacity="1"><g transform="translate(117.123122, 373.302704)"><g><path d="M 24.984375 0 C 28.253906 0 30.863281 -2.683594 30.863281 -5.878906 L 30.863281 -23.515625 C 30.863281 -26.746094 28.21875 -29.394531 24.984375 -29.394531 L 7.347656 -29.394531 C 4.113281 -29.394531 1.46875 -26.746094 1.46875 -23.515625 L 1.46875 -5.878906 C 1.46875 -2.644531 4.113281 0 7.347656 0 Z M 7.347656 -23.515625 L 24.984375 -23.515625 L 24.984375 -5.878906 L 7.347656 -5.878906 Z M 7.347656 -23.515625 "/></g></g></g><g fill="#00ffff" fill-opacity="1"><g transform="translate(155.258676, 373.302704)"><g><path d="M 24.984375 0 C 28.21875 0 30.863281 -2.644531 30.863281 -5.878906 L 30.863281 -29.394531 L 24.984375 -29.394531 L 24.984375 -5.878906 L 7.347656 -5.878906 L 7.347656 -29.394531 L 1.46875 -29.394531 L 1.46875 -5.878906 C 1.46875 -2.644531 4.113281 0 7.347656 0 Z M 24.984375 0 "/></g></g></g><g fill="#00ffff" fill-opacity="1"><g transform="translate(193.39423, 373.302704)"><g><path d="M 30.863281 -23.515625 C 30.863281 -26.746094 28.21875 -29.394531 24.984375 -29.394531 L 1.46875 -29.394531 L 1.46875 0 L 7.347656 0 L 7.347656 -11.757812 L 10.800781 -11.757812 L 21.675781 -0.882812 C 22.265625 -0.292969 23 0 23.808594 0 L 30.863281 0 L 30.863281 -5.878906 L 24.984375 -5.878906 L 19.105469 -11.757812 L 24.984375 -11.757812 C 28.21875 -11.757812 30.863281 -14.402344 30.863281 -17.636719 Z M 24.984375 -23.515625 L 24.984375 -17.636719 L 7.347656 -17.636719 L 7.347656 -23.515625 Z M 24.984375 -23.515625 "/></g></g></g><g fill="#00ffff" fill-opacity="1"><g transform="translate(231.529784, 373.302704)"><g/></g></g><g fill="#00ffff" fill-opacity="1"><g transform="translate(253.500796, 373.302704)"><g><path d="M 30.863281 -29.394531 L 7.347656 -29.394531 C 4.113281 -29.394531 1.46875 -26.746094 1.46875 -23.515625 L 1.46875 -5.878906 C 1.46875 -2.644531 4.113281 0 7.347656 0 L 24.984375 0 C 28.253906 0 30.863281 -2.683594 30.863281 -5.878906 L 30.863281 -17.636719 L 13.226562 -17.636719 L 13.226562 -11.757812 L 24.984375 -11.757812 L 24.984375 -5.878906 L 7.347656 -5.878906 L 7.347656 -23.515625 L 30.863281 -23.515625 Z M 30.863281 -29.394531 "/></g></g></g><g fill="#00ffff" fill-opacity="1"><g transform="translate(291.636358, 373.302704)"><g><path d="M 24.984375 0 C 28.253906 0 30.863281 -2.683594 30.863281 -5.878906 L 30.863281 -23.515625 C 30.863281 -26.746094 28.21875 -29.394531 24.984375 -29.394531 L 7.347656 -29.394531 C 4.113281 -29.394531 1.46875 -26.746094 1.46875 -23.515625 L 1.46875 -5.878906 C 1.46875 -2.644531 4.113281 0 7.347656 0 Z M 7.347656 -23.515625 L 24.984375 -23.515625 L 24.984375 -5.878906 L 7.347656 -5.878906 Z M 7.347656 -23.515625 "/></g></g></g><g fill="#00ffff" fill-opacity="1"><g transform="translate(329.771919, 373.302704)"><g><path d="M 30.863281 -29.394531 L 1.46875 -29.394531 L 1.46875 -23.515625 L 13.226562 -23.515625 L 13.226562 0 L 19.105469 0 L 19.105469 -23.515625 L 30.863281 -23.515625 Z M 30.863281 -29.394531 "/></g></g></g><g fill="#00ffff" fill-opacity="1"><g transform="translate(367.907481, 373.302704)"><g><path d="M 24.984375 0 C 28.253906 0 30.863281 -2.683594 30.863281 -5.878906 L 30.863281 -23.515625 C 30.863281 -26.746094 28.21875 -29.394531 24.984375 -29.394531 L 7.347656 -29.394531 C 4.113281 -29.394531 1.46875 -26.746094 1.46875 -23.515625 L 1.46875 -5.878906 C 1.46875 -2.644531 4.113281 0 7.347656 0 Z M 7.347656 -23.515625 L 24.984375 -23.515625 L 24.984375 -5.878906 L 7.347656 -5.878906 Z M 7.347656 -23.515625 "/></g></g></g><g fill="#00ffff" fill-opacity="1"><g transform="translate(406.043043, 373.302704)"><g/></g></g><g fill="#00ffff" fill-opacity="1"><g transform="translate(428.014055, 373.302704)"><g><path d="M 24.984375 -29.394531 L 1.46875 -29.394531 L 1.46875 0 L 7.347656 0 L 7.347656 -11.757812 L 24.984375 -11.757812 C 28.21875 -11.757812 30.863281 -14.402344 30.863281 -17.636719 L 30.863281 -23.515625 C 30.863281 -26.746094 28.21875 -29.394531 24.984375 -29.394531 Z M 7.347656 -17.636719 L 7.347656 -23.515625 L 24.984375 -23.515625 L 24.984375 -17.636719 Z M 7.347656 -17.636719 "/></g></g></g><g fill="#00ffff" fill-opacity="1"><g transform="translate(466.149616, 373.302704)"><g><path d="M 30.863281 0 L 30.863281 -5.878906 L 7.347656 -5.878906 L 7.347656 -29.394531 L 1.46875 -29.394531 L 1.46875 -5.878906 C 1.46875 -2.644531 4.113281 0 7.347656 0 Z M 30.863281 0 "/></g></g></g><g fill="#00ffff" fill-opacity="1"><g transform="translate(504.285178, 373.302704)"><g><path d="M 7.347656 -29.394531 C 4.113281 -29.394531 1.46875 -26.746094 1.46875 -23.515625 L 1.46875 0 L 7.347656 0 L 7.347656 -11.757812 L 24.984375 -11.757812 L 24.984375 0 L 30.863281 0 L 30.863281 -23.515625 C 30.863281 -26.746094 28.21875 -29.394531 24.984375 -29.394531 Z M 7.347656 -23.515625 L 24.984375 -23.515625 L 24.984375 -17.636719 L 7.347656 -17.636719 Z M 7.347656 -23.515625 "/></g></g></g><g fill="#00ffff" fill-opacity="1"><g transform="translate(542.42074, 373.302704)"><g><path d="M 30.863281 0 L 30.863281 -5.878906 L 7.347656 -5.878906 L 7.347656 -23.515625 L 30.863281 -23.515625 L 30.863281 -29.394531 L 7.347656 -29.394531 C 4.113281 -29.394531 1.46875 -26.746094 1.46875 -23.515625 L 1.46875 -5.878906 C 1.46875 -2.644531 4.113281 0 7.347656 0 Z M 30.863281 0 "/></g></g></g><g fill="#00ffff" fill-opacity="1"><g transform="translate(580.556272, 373.302704)"><g><path d="M 30.863281 -29.394531 L 7.347656 -29.394531 C 4.113281 -29.394531 1.46875 -26.746094 1.46875 -23.515625 L 1.46875 -5.878906 C 1.46875 -2.644531 4.113281 0 7.347656 0 L 30.863281 0 L 30.863281 -5.878906 L 7.347656 -5.878906 L 7.347656 -11.757812 L 30.863281 -11.757812 L 30.863281 -17.636719 L 7.347656 -17.636719 L 7.347656 -23.515625 L 30.863281 -23.515625 Z M 30.863281 -29.394531 "/></g></g></g><g fill="#00ffff" fill-opacity="1"><g transform="translate(618.691804, 373.302704)"><g/></g></g><g fill="#00ffff" fill-opacity="1"><g transform="translate(640.662816, 373.302704)"><g><path d="M 30.863281 -29.394531 L 7.347656 -29.394531 C 4.113281 -29.394531 1.46875 -26.746094 1.46875 -23.515625 L 1.46875 0 L 7.347656 0 L 7.347656 -11.757812 L 30.863281 -11.757812 L 30.863281 -17.636719 L 7.347656 -17.636719 L 7.347656 -23.515625 L 30.863281 -23.515625 Z M 30.863281 -29.394531 "/></g></g></g><g fill="#00ffff" fill-opacity="1"><g transform="translate(678.798349, 373.302704)"><g><path d="M 24.984375 0 C 28.253906 0 30.863281 -2.683594 30.863281 -5.878906 L 30.863281 -23.515625 C 30.863281 -26.746094 28.21875 -29.394531 24.984375 -29.394531 L 7.347656 -29.394531 C 4.113281 -29.394531 1.46875 -26.746094 1.46875 -23.515625 L 1.46875 -5.878906 C 1.46875 -2.644531 4.113281 0 7.347656 0 Z M 7.347656 -23.515625 L 24.984375 -23.515625 L 24.984375 -5.878906 L 7.347656 -5.878906 Z M 7.347656 -23.515625 "/></g></g></g><g fill="#00ffff" fill-opacity="1"><g transform="translate(716.933881, 373.302704)"><g><path d="M 30.863281 -23.515625 C 30.863281 -26.746094 28.21875 -29.394531 24.984375 -29.394531 L 1.46875 -29.394531 L 1.46875 0 L 7.347656 0 L 7.347656 -11.757812 L 10.800781 -11.757812 L 21.675781 -0.882812 C 22.265625 -0.292969 23 0 23.808594 0 L 30.863281 0 L 30.863281 -5.878906 L 24.984375 -5.878906 L 19.105469 -11.757812 L 24.984375 -11.757812 C 28.21875 -11.757812 30.863281 -14.402344 30.863281 -17.636719 Z M 24.984375 -23.515625 L 24.984375 -17.636719 L 7.347656 -17.636719 L 7.347656 -23.515625 Z M 24.984375 -23.515625 "/></g></g></g><g fill="#00ffff" fill-opacity="1"><g transform="translate(755.069413, 373.302704)"><g/></g></g><g fill="#00ffff" fill-opacity="1"><g transform="translate(777.040425, 373.302704)"><g><path d="M 24.984375 0 C 28.253906 0 30.863281 -2.683594 30.863281 -5.878906 L 30.863281 -29.394531 L 13.226562 -29.394531 L 13.226562 -23.515625 L 24.984375 -23.515625 L 24.984375 -5.878906 L 7.347656 -5.878906 L 7.347656 -11.757812 L 1.46875 -11.757812 L 1.46875 -5.878906 C 1.46875 -2.644531 4.113281 0 7.347656 0 Z M 24.984375 0 "/></g></g></g><g fill="#00ffff" fill-opacity="1"><g transform="translate(815.175957, 373.302704)"><g><path d="M 30.863281 -29.394531 L 7.347656 -29.394531 C 4.113281 -29.394531 1.46875 -26.746094 1.46875 -23.515625 L 1.46875 -17.636719 C 1.46875 -14.402344 4.113281 -11.757812 7.347656 -11.757812 L 24.984375 -11.757812 L 24.984375 -5.878906 L 1.46875 -5.878906 L 1.46875 0 L 24.984375 0 C 28.21875 0 30.863281 -2.644531 30.863281 -5.878906 L 30.863281 -11.757812 C 30.863281 -14.992188 28.21875 -17.636719 24.984375 -17.636719 L 7.347656 -17.636719 L 7.347656 -23.515625 L 30.863281 -23.515625 Z M 30.863281 -29.394531 "/></g></g></g><g fill="#ffffff" fill-opacity="1"><g transform="translate(76.749571, 372.786027)"><g><path d="M 24.984375 -17.636719 L 7.347656 -17.636719 L 7.347656 -29.394531 L 1.46875 -29.394531 L 1.46875 -17.636719 C 1.46875 -14.402344 4.113281 -11.757812 7.347656 -11.757812 L 24.984375 -11.757812 L 24.984375 -5.878906 L 1.46875 -5.878906 L 1.46875 0 L 24.984375 0 C 28.21875 0 30.863281 -2.644531 30.863281 -5.878906 L 30.863281 -29.394531 L 24.984375 -29.394531 Z M 24.984375 -17.636719 "/></g></g></g><g fill="#ffffff" fill-opacity="1"><g transform="translate(114.885125, 372.786027)"><g><path d="M 24.984375 0 C 28.253906 0 30.863281 -2.683594 30.863281 -5.878906 L 30.863281 -23.515625 C 30.863281 -26.746094 28.21875 -29.394531 24.984375 -29.394531 L 7.347656 -29.394531 C 4.113281 -29.394531 1.46875 -26.746094 1.46875 -23.515625 L 1.46875 -5.878906 C 1.46875 -2.644531 4.113281 0 7.347656 0 Z M 7.347656 -23.515625 L 24.984375 -23.515625 L 24.984375 -5.878906 L 7.347656 -5.878906 Z M 7.347656 -23.515625 "/></g></g></g><g fill="#ffffff" fill-opacity="1"><g transform="translate(153.020679, 372.786027)"><g><path d="M 24.984375 0 C 28.21875 0 30.863281 -2.644531 30.863281 -5.878906 L 30.863281 -29.394531 L 24.984375 -29.394531 L 24.984375 -5.878906 L 7.347656 -5.878906 L 7.347656 -29.394531 L 1.46875 -29.394531 L 1.46875 -5.878906 C 1.46875 -2.644531 4.113281 0 7.347656 0 Z M 24.984375 0 "/></g></g></g><g fill="#ffffff" fill-opacity="1"><g transform="translate(191.156234, 372.786027)"><g><path d="M 30.863281 -23.515625 C 30.863281 -26.746094 28.21875 -29.394531 24.984375 -29.394531 L 1.46875 -29.394531 L 1.46875 0 L 7.347656 0 L 7.347656 -11.757812 L 10.800781 -11.757812 L 21.675781 -0.882812 C 22.265625 -0.292969 23 0 23.808594 0 L 30.863281 0 L 30.863281 -5.878906 L 24.984375 -5.878906 L 19.105469 -11.757812 L 24.984375 -11.757812 C 28.21875 -11.757812 30.863281 -14.402344 30.863281 -17.636719 Z M 24.984375 -23.515625 L 24.984375 -17.636719 L 7.347656 -17.636719 L 7.347656 -23.515625 Z M 24.984375 -23.515625 "/></g></g></g><g fill="#ffffff" fill-opacity="1"><g transform="translate(229.291788, 372.786027)"><g/></g></g><g fill="#ffffff" fill-opacity="1"><g transform="translate(251.2628, 372.786027)"><g><path d="M 30.863281 -29.394531 L 7.347656 -29.394531 C 4.113281 -29.394531 1.46875 -26.746094 1.46875 -23.515625 L 1.46875 -5.878906 C 1.46875 -2.644531 4.113281 0 7.347656 0 L 24.984375 0 C 28.253906 0 30.863281 -2.683594 30.863281 -5.878906 L 30.863281 -17.636719 L 13.226562 -17.636719 L 13.226562 -11.757812 L 24.984375 -11.757812 L 24.984375 -5.878906 L 7.347656 -5.878906 L 7.347656 -23.515625 L 30.863281 -23.515625 Z M 30.863281 -29.394531 "/></g></g></g><g fill="#ffffff" fill-opacity="1"><g transform="translate(289.398361, 372.786027)"><g><path d="M 24.984375 0 C 28.253906 0 30.863281 -2.683594 30.863281 -5.878906 L 30.863281 -23.515625 C 30.863281 -26.746094 28.21875 -29.394531 24.984375 -29.394531 L 7.347656 -29.394531 C 4.113281 -29.394531 1.46875 -26.746094 1.46875 -23.515625 L 1.46875 -5.878906 C 1.46875 -2.644531 4.113281 0 7.347656 0 Z M 7.347656 -23.515625 L 24.984375 -23.515625 L 24.984375 -5.878906 L 7.347656 -5.878906 Z M 7.347656 -23.515625 "/></g></g></g><g fill="#ffffff" fill-opacity="1"><g transform="translate(327.533923, 372.786027)"><g><path d="M 30.863281 -29.394531 L 1.46875 -29.394531 L 1.46875 -23.515625 L 13.226562 -23.515625 L 13.226562 0 L 19.105469 0 L 19.105469 -23.515625 L 30.863281 -23.515625 Z M 30.863281 -29.394531 "/></g></g></g><g fill="#ffffff" fill-opacity="1"><g transform="translate(365.669485, 372.786027)"><g><path d="M 24.984375 0 C 28.253906 0 30.863281 -2.683594 30.863281 -5.878906 L 30.863281 -23.515625 C 30.863281 -26.746094 28.21875 -29.394531 24.984375 -29.394531 L 7.347656 -29.394531 C 4.113281 -29.394531 1.46875 -26.746094 1.46875 -23.515625 L 1.46875 -5.878906 C 1.46875 -2.644531 4.113281 0 7.347656 0 Z M 7.347656 -23.515625 L 24.984375 -23.515625 L 24.984375 -5.878906 L 7.347656 -5.878906 Z M 7.347656 -23.515625 "/></g></g></g><g fill="#ffffff" fill-opacity="1"><g transform="translate(403.805047, 372.786027)"><g/></g></g><g fill="#ffffff" fill-opacity="1"><g transform="translate(425.776058, 372.786027)"><g><path d="M 24.984375 -29.394531 L 1.46875 -29.394531 L 1.46875 0 L 7.347656 0 L 7.347656 -11.757812 L 24.984375 -11.757812 C 28.21875 -11.757812 30.863281 -14.402344 30.863281 -17.636719 L 30.863281 -23.515625 C 30.863281 -26.746094 28.21875 -29.394531 24.984375 -29.394531 Z M 7.347656 -17.636719 L 7.347656 -23.515625 L 24.984375 -23.515625 L 24.984375 -17.636719 Z M 7.347656 -17.636719 "/></g></g></g><g fill="#ffffff" fill-opacity="1"><g transform="translate(463.91162, 372.786027)"><g><path d="M 30.863281 0 L 30.863281 -5.878906 L 7.347656 -5.878906 L 7.347656 -29.394531 L 1.46875 -29.394531 L 1.46875 -5.878906 C 1.46875 -2.644531 4.113281 0 7.347656 0 Z M 30.863281 0 "/></g></g></g><g fill="#ffffff" fill-opacity="1"><g transform="translate(502.047182, 372.786027)"><g><path d="M 7.347656 -29.394531 C 4.113281 -29.394531 1.46875 -26.746094 1.46875 -23.515625 L 1.46875 0 L 7.347656 0 L 7.347656 -11.757812 L 24.984375 -11.757812 L 24.984375 0 L 30.863281 0 L 30.863281 -23.515625 C 30.863281 -26.746094 28.21875 -29.394531 24.984375 -29.394531 Z M 7.347656 -23.515625 L 24.984375 -23.515625 L 24.984375 -17.636719 L 7.347656 -17.636719 Z M 7.347656 -23.515625 "/></g></g></g><g fill="#ffffff" fill-opacity="1"><g transform="translate(540.182744, 372.786027)"><g><path d="M 30.863281 0 L 30.863281 -5.878906 L 7.347656 -5.878906 L 7.347656 -23.515625 L 30.863281 -23.515625 L 30.863281 -29.394531 L 7.347656 -29.394531 C 4.113281 -29.394531 1.46875 -26.746094 1.46875 -23.515625 L 1.46875 -5.878906 C 1.46875 -2.644531 4.113281 0 7.347656 0 Z M 30.863281 0 "/></g></g></g><g fill="#ffffff" fill-opacity="1"><g transform="translate(578.318276, 372.786027)"><g><path d="M 30.863281 -29.394531 L 7.347656 -29.394531 C 4.113281 -29.394531 1.46875 -26.746094 1.46875 -23.515625 L 1.46875 -5.878906 C 1.46875 -2.644531 4.113281 0 7.347656 0 L 30.863281 0 L 30.863281 -5.878906 L 7.347656 -5.878906 L 7.347656 -11.757812 L 30.863281 -11.757812 L 30.863281 -17.636719 L 7.347656 -17.636719 L 7.347656 -23.515625 L 30.863281 -23.515625 Z M 30.863281 -29.394531 "/></g></g></g><g fill="#ffffff" fill-opacity="1"><g transform="translate(616.453808, 372.786027)"><g/></g></g><g fill="#ffffff" fill-opacity="1"><g transform="translate(638.42482, 372.786027)"><g><path d="M 30.863281 -29.394531 L 7.347656 -29.394531 C 4.113281 -29.394531 1.46875 -26.746094 1.46875 -23.515625 L 1.46875 0 L 7.347656 0 L 7.347656 -11.757812 L 30.863281 -11.757812 L 30.863281 -17.636719 L 7.347656 -17.636719 L 7.347656 -23.515625 L 30.863281 -23.515625 Z M 30.863281 -29.394531 "/></g></g></g><g fill="#ffffff" fill-opacity="1"><g transform="translate(676.560352, 372.786027)"><g><path d="M 24.984375 0 C 28.253906 0 30.863281 -2.683594 30.863281 -5.878906 L 30.863281 -23.515625 C 30.863281 -26.746094 28.21875 -29.394531 24.984375 -29.394531 L 7.347656 -29.394531 C 4.113281 -29.394531 1.46875 -26.746094 1.46875 -23.515625 L 1.46875 -5.878906 C 1.46875 -2.644531 4.113281 0 7.347656 0 Z M 7.347656 -23.515625 L 24.984375 -23.515625 L 24.984375 -5.878906 L 7.347656 -5.878906 Z M 7.347656 -23.515625 "/></g></g></g><g fill="#ffffff" fill-opacity="1"><g transform="translate(714.695885, 372.786027)"><g><path d="M 30.863281 -23.515625 C 30.863281 -26.746094 28.21875 -29.394531 24.984375 -29.394531 L 1.46875 -29.394531 L 1.46875 0 L 7.347656 0 L 7.347656 -11.757812 L 10.800781 -11.757812 L 21.675781 -0.882812 C 22.265625 -0.292969 23 0 23.808594 0 L 30.863281 0 L 30.863281 -5.878906 L 24.984375 -5.878906 L 19.105469 -11.757812 L 24.984375 -11.757812 C 28.21875 -11.757812 30.863281 -14.402344 30.863281 -17.636719 Z M 24.984375 -23.515625 L 24.984375 -17.636719 L 7.347656 -17.636719 L 7.347656 -23.515625 Z M 24.984375 -23.515625 "/></g></g></g><g fill="#ffffff" fill-opacity="1"><g transform="translate(752.831417, 372.786027)"><g/></g></g><g fill="#ffffff" fill-opacity="1"><g transform="translate(774.802429, 372.786027)"><g><path d="M 24.984375 0 C 28.253906 0 30.863281 -2.683594 30.863281 -5.878906 L 30.863281 -29.394531 L 13.226562 -29.394531 L 13.226562 -23.515625 L 24.984375 -23.515625 L 24.984375 -5.878906 L 7.347656 -5.878906 L 7.347656 -11.757812 L 1.46875 -11.757812 L 1.46875 -5.878906 C 1.46875 -2.644531 4.113281 0 7.347656 0 Z M 24.984375 0 "/></g></g></g><g fill="#ffffff" fill-opacity="1"><g transform="translate(812.937961, 372.786027)"><g><path d="M 30.863281 -29.394531 L 7.347656 -29.394531 C 4.113281 -29.394531 1.46875 -26.746094 1.46875 -23.515625 L 1.46875 -17.636719 C 1.46875 -14.402344 4.113281 -11.757812 7.347656 -11.757812 L 24.984375 -11.757812 L 24.984375 -5.878906 L 1.46875 -5.878906 L 1.46875 0 L 24.984375 0 C 28.21875 0 30.863281 -2.644531 30.863281 -5.878906 L 30.863281 -11.757812 C 30.863281 -14.992188 28.21875 -17.636719 24.984375 -17.636719 L 7.347656 -17.636719 L 7.347656 -23.515625 L 30.863281 -23.515625 Z M 30.863281 -29.394531 "/></g></g></g></svg>